<svg viewBox="0 0 429.34 337.5" xmlns="http://www.w3.org/2000/svg"><circle cx="168.75" cy="168.75" fill="#f5e48f" r="162.75"/><path d="m177.29 331.28c-2.82.15-5.67.22-8.53.22a162.75 162.75 0 1 1 0-325.5c2.86 0 5.71.07 8.53.22a162.75 162.75 0 0 0 0 325.06z" fill="#fff" opacity=".4"/><circle cx="173.48" cy="167.18" fill="#f5e48f" r="133.98" transform="matrix(.05913215 -.99825016 .99825016 .05913215 -3.67 330.45)"/><path d="m303.87 174.88a134 134 0 0 1 -260.38 35.9 70.84 70.84 0 0 1 58.71-1.51c13.83 6 25.46 16.36 39.4 22.11 30.18 12.44 68.21-1.1 85.16-29s12.24-66.66-9.76-90.83c-11.22-12.35-26-20.93-41.26-27.69a238.31 238.31 0 0 0 -91-20.13 134 134 0 0 1 219.13 111.15z" fill="#dec378" opacity=".6"/><g fill="#893c21"><path d="m214.32 168.75c-4.26-3.62-10.53-5.34-10.53-5.34s5.56-2.8 7.94-5.78a23.71 23.71 0 0 0 4.1-10.24c.33-2.49 1.38-13-6.44-19.5-6.05-5.05-13.2-7.34-22.9-8.52l1.26-21.19-13.07-.78-1.24 20.94-10-.59 1.24-20.94-13.02-.81-1.24 21-25.71-1.52-.81 13.52 7.56.45c2.06.12 5.71.57 7.16 2.4s1.67 2.76 1.47 6.15l-3.21 54.07a5.3 5.3 0 0 1 -1.58 3.83c-1.16 1-2.27 1.15-4.9 1l-7.82-.46-3.58 15.56 25.71 1.52-1.24 20.88 13.07.78 1.24-20.88 10 .59-1.24 20.88 13.07.78 1.26-21.23c3.39 0 6.55-.07 8.41-.2 3.75-.27 12.24-.74 20.44-5.77s10.48-13.53 11.18-22.19-2.32-14.78-6.58-18.41zm-51.72-36.21s4.17-.12 8.26.18a41.65 41.65 0 0 1 13 2.61c5.27 2 8.21 6.19 8.05 11a10.25 10.25 0 0 1 -6.21 9.62 31.89 31.89 0 0 1 -13.7 2.45c-4.77-.1-10.87-.64-10.87-.64zm25.54 64.2c-3.09 1.47-9.16 2.58-15 2.66s-14.49-.61-14.49-.61l1.66-28s8.33.07 14.78.88a41.91 41.91 0 0 1 14.15 4.15c2.37 1.37 6.49 4.3 6.11 10.72s-4.11 8.73-7.2 10.2z"/><path d="m160.43 309c-77.31-4.63-136.43-71.26-131.89-148.57s71.21-136.43 148.53-131.89 136.48 71.21 131.93 148.53-71.25 136.48-148.57 131.93zm15.87-267.52a127.49 127.49 0 1 0 119.7 134.82 127.64 127.64 0 0 0 -119.7-134.82z"/><path d="m168.75 337.5c-93.05 0-168.75-75.7-168.75-168.75s75.7-168.75 168.75-168.75 168.75 75.7 168.75 168.75-75.7 168.75-168.75 168.75zm0-325.5c-86.43 0-156.75 70.32-156.75 156.75s70.32 156.75 156.75 156.75 156.75-70.32 156.75-156.75-70.32-156.75-156.75-156.75z"/></g><circle cx="260.59" cy="168.75" fill="#f5e48f" r="162.75"/><path d="m269.12 331.28c-2.82.15-5.67.22-8.53.22a162.75 162.75 0 1 1 0-325.5c2.86 0 5.71.07 8.53.22a162.75 162.75 0 0 0 0 325.06z" fill="#fff" opacity=".4"/><circle cx="265.32" cy="167.18" fill="#f5e48f" r="133.98" transform="matrix(.05913215 -.99825016 .99825016 .05913215 82.73 422.13)"/><path d="m395.71 174.88a134 134 0 0 1 -260.38 35.9 70.84 70.84 0 0 1 58.67-1.5c13.83 6 25.46 16.36 39.4 22.11 30.18 12.44 68.21-1.1 85.16-29s12.19-66.67-9.76-90.84c-11.22-12.35-26-20.93-41.26-27.69a238.31 238.31 0 0 0 -91-20.13 134 134 0 0 1 219.17 111.15z" fill="#dec378" opacity=".6"/><path d="m306.16 168.75c-4.26-3.62-10.53-5.34-10.53-5.34s5.56-2.8 7.94-5.78a23.71 23.71 0 0 0 4.1-10.24c.33-2.49 1.38-13-6.44-19.5-6.05-5.05-13.2-7.34-22.9-8.52l1.26-21.19-13.07-.78-1.24 20.94-10-.59 1.24-20.94-13.02-.81-1.25 21-25.71-1.52-.8 13.57 7.56.45c2.06.12 5.71.57 7.16 2.4s1.67 2.76 1.47 6.15l-3.21 54.07a5.3 5.3 0 0 1 -1.58 3.83c-1.16 1-2.27 1.15-4.9 1l-7.82-.46-3.6 15.51 25.71 1.52-1.24 20.88 13.07.78 1.24-20.88 10 .59-1.24 20.88 13.07.78 1.26-21.23c3.39 0 6.55-.07 8.41-.2 3.75-.27 12.24-.74 20.44-5.77s10.48-13.53 11.18-22.19-2.31-14.78-6.56-18.41zm-51.72-36.22s4.17-.12 8.26.18a41.65 41.65 0 0 1 13 2.61c5.27 2 8.21 6.19 8.05 11a10.25 10.25 0 0 1 -6.21 9.62 31.89 31.89 0 0 1 -13.69 2.5c-4.77-.1-10.87-.64-10.87-.64zm25.56 64.21c-3.09 1.47-9.16 2.58-15 2.66s-14.49-.61-14.49-.61l1.66-28s8.33.07 14.78.88a41.91 41.91 0 0 1 14.15 4.15c2.37 1.37 6.49 4.3 6.11 10.72s-4.14 8.73-7.21 10.2z" fill="#893c21"/><path d="m252.27 309c-77.27-4.63-136.48-71.26-131.89-148.57s71.21-136.43 148.53-131.89 136.48 71.21 131.89 148.53-71.22 136.48-148.53 131.93zm15.87-267.52a127.49 127.49 0 1 0 119.72 134.82 127.64 127.64 0 0 0 -119.72-134.82z" fill="#893c21"/><path d="m260.59 337.5c-93 0-168.75-75.7-168.75-168.75s75.7-168.75 168.75-168.75 168.75 75.7 168.75 168.75-75.7 168.75-168.75 168.75zm0-325.5c-86.43 0-156.75 70.32-156.75 156.75s70.32 156.75 156.75 156.75 156.75-70.32 156.75-156.75-70.34-156.75-156.75-156.75z" fill="#893c21"/><path d="m363.11 203.9c1.59-3.76 2.92-7.41 4.06-10.77.53-1.69 1.09-3.29 1.51-4.82s.87-2.95 1.25-4.26c1.49-5.24 2.49-8.63 3.59-8.58s1.94 3.59 1.76 9.41a44.46 44.46 0 0 1 -.38 4.73c-.18 1.7-.54 3.49-.92 5.38a67.3 67.3 0 0 1 -9.79 22.93c-1.1 1.58-2.15 3.08-3.25 4.39a44.43 44.43 0 0 1 -3.15 3.55c-4.08 4.15-7.29 5.94-8 5.23s1-3.83 3.72-8.53c.69-1.18 1.45-2.45 2.21-3.85s1.58-2.87 2.44-4.43c1.62-3.15 3.33-6.63 4.95-10.38z" fill="#fff"/><path d="m368.27 145.07c-2-9.05-3.28-16.68-1.29-17.5 1-.38 2.6 1.1 4.29 3.94a45.06 45.06 0 0 1 5.45 24.58c-.33 3.29-1.18 5.32-2.23 5.39-2.14.1-4.19-7.37-6.22-16.41z" fill="#fff"/></svg>